<svg xmlns="http://www.w3.org/2000/svg" xmlns:xlink="http://www.w3.org/1999/xlink" width="500" zoomAndPan="magnify" viewBox="0 0 375 374.999991" height="500" preserveAspectRatio="xMidYMid meet" version="1.0"><defs><clipPath id="d3b88aa505"><path d="M 206 59 L 348 59 L 348 204.460938 L 206 204.460938 Z M 206 59 " clip-rule="nonzero"/></clipPath><clipPath id="b2609ff691"><path d="M 277.339844 93.6875 C 277.378906 93.6875 277.414062 93.6875 277.453125 93.6875 C 299.355469 93.75 315.902344 112.296875 315.355469 132.679688 C 314.800781 153.257812 298.058594 169.6875 276.972656 169.6875 C 276.867188 169.6875 276.761719 169.6875 276.660156 169.6875 C 255.773438 169.523438 239.269531 152.515625 239.4375 131.316406 C 239.601562 110.347656 256.4375 93.679688 277.339844 93.679688 Z M 272.386719 59.445312 C 268.664062 59.585938 267.050781 61.265625 266.902344 64.96875 L 266.828125 71.261719 C 266.632812 75.320312 260.089844 79.414062 255.335938 79.414062 C 254.164062 79.414062 253.105469 79.167969 252.277344 78.605469 C 251.484375 78.074219 250.871094 77.238281 250.277344 76.464844 L 246.523438 71.425781 C 245.296875 69.839844 243.925781 68.988281 242.414062 68.988281 C 241.386719 68.988281 240.289062 69.378906 239.132812 70.210938 L 230.773438 76.316406 C 227.976562 78.480469 227.613281 81.0625 229.605469 84.0625 C 230.769531 85.804688 232.457031 87.292969 233.203125 89.179688 C 233.953125 91.066406 234.789062 93.960938 233.898438 95.257812 C 231.714844 98.441406 230.488281 102.988281 225.652344 103.558594 C 225.554688 103.574219 225.457031 103.574219 225.363281 103.574219 C 224.527344 103.574219 223.628906 103.1875 222.792969 102.921875 L 216.824219 100.980469 C 216.167969 100.820312 215.535156 100.730469 214.945312 100.730469 C 212.8125 100.730469 211.152344 101.820312 210.292969 104.234375 L 207.050781 114.4375 C 206.171875 117.628906 207.199219 120.019531 210.515625 121.121094 L 217.171875 123.34375 C 219.675781 124.195312 220.875 125.941406 221.03125 128.609375 C 221.601562 138.285156 221.320312 138.757812 211.746094 141.914062 L 210.8125 142.238281 C 207.304688 143.503906 206.105469 145.4375 207.042969 149.074219 C 207.933594 152.523438 209.042969 155.929688 210.265625 159.285156 C 211.117188 161.625 212.769531 162.792969 214.921875 162.792969 C 215.605469 162.792969 216.335938 162.675781 217.105469 162.445312 C 219.34375 161.773438 221.558594 160.601562 223.816406 160.503906 C 223.949219 160.5 224.089844 160.5 224.238281 160.5 C 226.15625 160.5 228.6875 161.007812 229.605469 162.246094 C 235.238281 169.8125 237.246094 169.441406 230.136719 178.667969 L 229.546875 179.460938 C 227.621094 182.421875 227.9375 185.027344 230.738281 187.234375 L 239.105469 193.328125 C 240.253906 194.085938 241.371094 194.46875 242.4375 194.46875 C 243.941406 194.46875 245.332031 193.699219 246.554688 192.070312 C 248.035156 190.09375 249.265625 187.84375 251.078125 186.25 C 252.1875 185.28125 254.089844 184.257812 255.476562 184.257812 C 255.71875 184.257812 255.941406 184.289062 256.148438 184.355469 C 265.183594 187.375 267.21875 185.191406 266.796875 197.511719 L 266.820312 198.253906 C 266.980469 202.371094 268.558594 203.960938 272.78125 204.085938 L 280.917969 204.117188 C 286.484375 204.058594 287.847656 202.652344 287.898438 197.03125 C 287.988281 187.414062 287.988281 187.414062 297.28125 184.523438 L 297.519531 184.464844 C 298.265625 184.191406 298.976562 184.066406 299.636719 184.066406 C 301.359375 184.066406 302.8125 184.949219 304.011719 186.539062 L 308.152344 192.21875 C 309.34375 193.722656 310.742188 194.484375 312.238281 194.484375 C 313.246094 194.484375 314.289062 194.144531 315.347656 193.453125 C 318.441406 191.433594 321.417969 189.226562 324.308594 186.917969 C 326.808594 184.910156 327.0625 182.378906 325.230469 179.71875 L 321.34375 174.316406 C 319.5 171.804688 319.582031 169.449219 321.433594 166.875 C 324.847656 162.113281 326.152344 160.261719 328.882812 160.261719 C 330.601562 160.261719 332.894531 160.996094 336.636719 162.203125 L 337.582031 162.46875 C 338.390625 162.757812 339.128906 162.890625 339.804688 162.890625 C 341.914062 162.890625 343.386719 161.550781 344.351562 159.230469 L 345.898438 154.6875 C 348.949219 145.59375 350.03125 143.734375 338.921875 140.542969 C 337.109375 140.023438 334.953125 138.597656 334.160156 136.988281 C 331.066406 130.6875 334.007812 124.445312 340.648438 122.304688 C 348.5625 119.757812 349.066406 118.78125 346.394531 110.585938 L 346.1875 109.875 C 344.113281 103.21875 343.285156 100.796875 340.1875 100.796875 C 338.449219 100.796875 335.992188 101.566406 332.183594 102.773438 C 331.222656 103.078125 330.074219 103.308594 328.992188 103.308594 C 328.230469 103.308594 327.503906 103.195312 326.898438 102.921875 C 320.804688 100.152344 318.976562 92.40625 322.820312 87.078125 L 326.929688 80.8125 C 325.996094 79.242188 325.527344 77.71875 324.5 76.875 C 321.449219 74.386719 318.234375 72.082031 314.976562 69.863281 C 314.042969 69.226562 313.132812 68.9375 312.265625 68.9375 C 310.847656 68.9375 309.535156 69.714844 308.425781 71.039062 L 304.261719 76.6875 C 302.96875 78.539062 301.414062 79.390625 299.539062 79.390625 C 298.800781 79.390625 298.007812 79.257812 297.164062 79 C 287.9375 76.183594 287.929688 76.222656 287.847656 66.046875 L 287.839844 65.0625 C 287.671875 61.429688 285.996094 59.597656 282.390625 59.445312 Z M 272.386719 59.445312 " clip-rule="nonzero"/></clipPath><clipPath id="0b0ab3b5a0"><path d="M 60.019531 106 L 290 106 L 290 258 L 60.019531 258 Z M 60.019531 106 " clip-rule="nonzero"/></clipPath><clipPath id="cf6fe30554"><path d="M 277.539062 212.230469 C 281.8125 211.566406 285.648438 210.972656 289.648438 210.351562 C 289.648438 220.191406 290.527344 230.460938 289.410156 240.503906 C 288.21875 251.222656 279.289062 257.695312 268.203125 257.703125 L 142.679688 257.71875 C 122.5625 257.71875 102.4375 257.480469 82.324219 257.796875 C 70.308594 257.992188 60.097656 248.246094 60.238281 235.675781 C 60.644531 199.875 60.636719 164.066406 60.238281 128.273438 C 60.105469 116.191406 69.367188 105.9375 82.546875 106.007812 C 121.175781 106.222656 159.8125 106.089844 198.449219 106.089844 C 199.300781 106.089844 200.152344 106.089844 201.292969 106.089844 C 200.34375 110.246094 199.453125 114.125 198.476562 118.425781 L 194.597656 118.425781 C 157.9375 118.425781 121.28125 118.425781 84.628906 118.425781 C 76.445312 118.425781 72.832031 121.953125 72.832031 130.007812 L 72.832031 233.710938 C 72.832031 242.027344 76.148438 245.324219 84.53125 245.324219 L 265.96875 245.328125 C 273.792969 245.328125 277.535156 241.621094 277.546875 233.839844 L 277.554688 212.238281 " clip-rule="nonzero"/></clipPath><clipPath id="046b57b143"><path d="M 49 272 L 301 272 L 301 289 L 49 289 Z M 49 272 " clip-rule="nonzero"/></clipPath><clipPath id="3210aa3f93"><path d="M 300.480469 272.164062 C 300.648438 280.996094 293.917969 288.3125 284.828125 288.511719 C 258.335938 289.097656 231.828125 288.71875 205.363281 288.71875 C 203.039062 280.117188 201.402344 278.855469 192.488281 278.835938 L 156.222656 278.820312 C 148.921875 278.84375 146.21875 281.253906 145.171875 288.609375 L 142.351562 288.859375 C 117.925781 288.867188 93.507812 288.949219 69.078125 288.757812 C 65.628906 288.726562 61.964844 287.84375 58.785156 286.46875 C 52.871094 283.90625 49.960938 278.921875 49.457031 272.171875 Z M 300.480469 272.164062 " clip-rule="nonzero"/></clipPath><clipPath id="0ccb1734d6"><path d="M 28 30.035156 L 226.570312 30.035156 L 226.570312 177 L 28 177 Z M 28 30.035156 " clip-rule="nonzero"/></clipPath><clipPath id="b970ff1b0d"><path d="M 99.660156 30.042969 C 96.488281 30.046875 93.296875 30.175781 90.078125 30.441406 C 74.433594 31.722656 60.203125 36.765625 48.621094 47.765625 C 32.265625 63.292969 27.679688 83.21875 28.238281 104.773438 C 28.667969 121.542969 32.597656 137.707031 38.492188 153.359375 C 41.417969 161.136719 44.875 168.71875 48.085938 176.386719 L 48.472656 176.269531 L 49.25 176.023438 C 49.25 170.109375 49.429688 164.1875 49.175781 158.277344 C 49.058594 155.53125 48.511719 152.664062 47.480469 150.125 C 38.882812 128.792969 32.613281 107.128906 35.078125 83.65625 C 37.722656 58.457031 55.675781 40.03125 80.875 36.933594 C 84.761719 36.453125 88.613281 36.230469 92.441406 36.230469 C 105.125 36.230469 117.488281 38.6875 129.691406 42.496094 C 157.910156 51.300781 183.007812 66.035156 206.511719 83.671875 C 211.78125 87.625 216.898438 91.785156 222.28125 96.015625 C 223.753906 93.984375 224.960938 92.3125 226.09375 90.75 L 220.074219 80.820312 C 219.070312 79.226562 218.144531 77.390625 216.699219 76.3125 C 202.054688 65.359375 186.585938 55.71875 169.984375 47.996094 C 147.667969 37.601562 124.6875 30.085938 100.101562 30.042969 Z M 99.660156 30.042969 " clip-rule="nonzero"/></clipPath><clipPath id="8e20e4a5be"><path d="M 160.691406 201 L 332 201 L 332 334 L 160.691406 334 Z M 160.691406 201 " clip-rule="nonzero"/></clipPath><clipPath id="5384139dca"><path d="M 306.351562 201.398438 C 306.351562 201.398438 306.351562 201.40625 306.34375 201.414062 C 306.34375 201.40625 306.351562 201.398438 306.351562 201.398438 Z M 306.34375 201.414062 C 306.328125 201.453125 306.269531 201.570312 306.085938 201.882812 C 306.246094 201.910156 306.402344 201.949219 306.566406 201.976562 L 306.34375 201.464844 C 306.335938 201.453125 306.34375 201.429688 306.34375 201.414062 Z M 306.566406 201.976562 L 311.710938 214.015625 C 320.136719 234.785156 325.855469 255.992188 323.402344 278.789062 C 321.121094 300.078125 308.078125 316.550781 287.675781 322.882812 C 280.644531 325.066406 273.542969 325.957031 266.417969 325.957031 C 259.96875 325.957031 253.507812 325.230469 247.035156 324.074219 C 226.429688 320.402344 207.125 312.863281 189.207031 302.328125 C 184.289062 299.433594 179.367188 298.839844 174.421875 298.839844 C 170.957031 298.839844 167.476562 299.136719 163.972656 299.136719 C 162.964844 299.136719 161.964844 299.113281 160.953125 299.046875 C 162.195312 300.402344 163.542969 301.402344 165.007812 302.179688 C 174.894531 307.460938 184.566406 313.226562 194.761719 317.832031 C 215.945312 327.40625 237.800781 333.8125 261.035156 333.8125 C 264.457031 333.8125 267.90625 333.671875 271.394531 333.382812 C 304.382812 330.648438 328.765625 306.265625 331.546875 273.289062 C 332.984375 256.265625 330.617188 239.835938 326.070312 223.605469 C 324.160156 216.777344 321.546875 210.152344 319.648438 204.597656 C 314.660156 203.597656 310.71875 202.8125 306.558594 201.984375 Z M 306.566406 201.976562 " clip-rule="nonzero"/></clipPath><clipPath id="50733629a0"><path d="M 145 164 L 205 164 L 205 224.417969 L 145 224.417969 Z M 145 164 " clip-rule="nonzero"/></clipPath><clipPath id="ddd732254c"><path d="M 190.851562 194.1875 C 190.878906 185.355469 184.054688 178.402344 175.285156 178.328125 C 166.378906 178.253906 159.203125 185.332031 159.21875 194.1875 C 159.234375 202.800781 166.320312 209.8125 175.117188 209.90625 C 183.800781 210.003906 190.828125 202.984375 190.859375 194.1875 M 149.933594 181.667969 C 151.488281 181.800781 153.191406 182.394531 154.570312 181.964844 C 157.042969 181.1875 157.761719 177.734375 155.976562 175.335938 C 153.933594 172.582031 155.429688 171.234375 157.554688 169.695312 C 159.605469 168.207031 161.433594 167.296875 163.054688 170.066406 C 164.226562 172.0625 165.699219 172.640625 167.992188 171.910156 C 170.363281 171.152344 171.007812 169.65625 170.808594 167.4375 C 170.488281 164.007812 172.867188 164.125 175.183594 164.105469 C 177.582031 164.074219 179.820312 164.199219 179.542969 167.515625 C 179.359375 169.730469 179.929688 171.21875 182.359375 171.953125 C 184.734375 172.679688 186.113281 171.847656 187.265625 169.960938 C 189.023438 167.09375 190.851562 168.457031 192.785156 169.8125 C 194.789062 171.21875 196.398438 172.632812 194.277344 175.128906 C 192.828125 176.839844 192.539062 178.417969 194.011719 180.414062 C 195.484375 182.414062 196.988281 182.609375 199.105469 181.734375 C 202.03125 180.527344 202.992188 182.445312 203.742188 184.800781 C 204.46875 187.101562 205.023438 189.21875 201.875 190.042969 C 199.75 190.597656 198.492188 191.542969 198.527344 194.097656 C 198.566406 196.578125 199.675781 197.660156 201.847656 198.207031 C 205.332031 199.089844 204.328125 201.355469 203.644531 203.726562 C 202.898438 206.347656 201.601562 207.695312 198.878906 206.488281 C 196.871094 205.597656 195.484375 205.851562 194.125 207.707031 C 192.71875 209.632812 192.710938 211.246094 194.242188 213.003906 C 196.308594 215.371094 195.125 216.890625 192.960938 218.355469 C 190.878906 219.769531 188.941406 221.199219 187.132812 218.179688 C 185.917969 216.140625 184.34375 215.667969 182.136719 216.378906 C 179.945312 217.082031 179.410156 218.59375 179.589844 220.660156 C 179.878906 224.152344 177.523438 224.257812 174.984375 224.257812 C 172.519531 224.257812 170.414062 223.996094 170.769531 220.71875 C 170.992188 218.636719 170.386719 217.125 168.1875 216.460938 C 166.074219 215.824219 164.394531 215.914062 163.167969 218.113281 C 161.507812 221.082031 159.558594 220.082031 157.398438 218.496094 C 155.214844 216.90625 153.800781 215.34375 156.050781 212.847656 C 157.5 211.238281 157.6875 209.8125 156.292969 207.953125 C 154.886719 206.078125 153.539062 205.441406 151.296875 206.492188 C 148.875 207.625 147.402344 206.671875 146.742188 204.019531 C 146.160156 201.671875 144.492188 199.230469 148.378906 198.214844 C 150.484375 197.667969 151.710938 196.632812 151.710938 194.105469 C 151.710938 191.582031 150.511719 190.664062 148.386719 190.027344 C 146.683594 189.515625 144.996094 188.632812 146.128906 186.324219 C 147.054688 184.445312 146.410156 181.273438 149.941406 181.660156 " clip-rule="nonzero"/></clipPath><clipPath id="ad2a7523fc"><path d="M 94.070312 136 L 134.78125 136 L 134.78125 176 L 94.070312 176 Z M 94.070312 136 " clip-rule="nonzero"/></clipPath><clipPath id="eaa08d0128"><path d="M 103.984375 155.996094 C 103.9375 161.851562 108.582031 166.613281 114.378906 166.660156 C 120.214844 166.703125 124.929688 162.039062 124.96875 156.1875 C 125.003906 150.332031 120.382812 145.578125 114.570312 145.496094 C 108.804688 145.414062 104.035156 150.15625 103.984375 155.996094 M 101.925781 172.117188 L 98.695312 168.4375 C 99.191406 167.710938 99.746094 167.175781 99.949219 166.53125 C 100.28125 165.480469 100.851562 164.148438 100.472656 163.328125 C 100.097656 162.511719 98.59375 161.625 97.726562 161.75 C 95.351562 162.082031 94.699219 160.601562 94.808594 159.011719 C 94.882812 157.949219 95.90625 156.558594 96.882812 156.035156 C 99.480469 154.640625 99.746094 152.789062 97.683594 150.695312 C 96.910156 149.910156 96.4375 148.289062 96.644531 147.207031 C 96.984375 145.421875 98.214844 144.816406 100.273438 145.503906 C 103.359375 146.535156 104.546875 144.957031 103.984375 141.625 C 103.8125 140.640625 104.671875 138.878906 105.539062 138.46875 C 106.417969 138.054688 108.292969 138.457031 109.019531 139.203125 C 111.320312 141.566406 113.558594 141.492188 114.34375 138.390625 C 114.941406 136.027344 116.421875 135.945312 117.867188 136.53125 C 118.859375 136.9375 119.886719 138.351562 120.050781 139.449219 C 120.507812 142.425781 122.308594 143.558594 124.714844 141.699219 C 126.441406 140.367188 127.757812 140.507812 128.65625 142.148438 C 129.179688 143.121094 129.328125 144.800781 128.832031 145.734375 C 127.402344 148.4375 128.097656 150.398438 131.105469 150.382812 C 133.1875 150.375 133.964844 151.140625 134.289062 153.027344 C 134.628906 155.027344 133.902344 155.8125 131.941406 156.359375 C 129.410156 157.0625 129.015625 159.832031 131.269531 161.296875 C 133.03125 162.453125 133.296875 163.40625 132.335938 165.179688 C 131.429688 166.835938 130.601562 167.480469 128.574219 166.660156 C 125.980469 165.605469 124.054688 167.382812 124.996094 169.984375 C 125.773438 172.128906 125.25 173.101562 123.414062 174.078125 C 121.515625 175.085938 120.671875 174.425781 119.597656 172.78125 C 118.15625 170.574219 115.835938 171.210938 114.5625 173.648438 C 114.054688 174.625 112.757812 175.722656 111.75 175.796875 C 109.980469 175.929688 108.375 175.292969 108.816406 172.714844 C 108.953125 171.929688 108.160156 170.464844 107.441406 170.191406 C 106.546875 169.84375 105.265625 170.28125 104.210938 170.589844 C 103.5625 170.78125 103.019531 171.359375 101.933594 172.109375 " clip-rule="nonzero"/></clipPath><clipPath id="6f56fc5b6a"><path d="M 253 107 L 302 107 L 302 156.421875 L 253 156.421875 Z M 253 107 " clip-rule="nonzero"/></clipPath><clipPath id="0ee255543e"><path d="M 253.019531 131.457031 C 253.164062 117.902344 264.148438 107.246094 277.777344 107.425781 C 290.921875 107.59375 301.988281 118.960938 301.746094 132.027344 C 301.5 145.304688 290.378906 156.234375 277.230469 156.121094 C 263.730469 156.011719 252.871094 144.941406 253.019531 131.464844 " clip-rule="nonzero"/></clipPath></defs><g clip-path="url(#d3b88aa505)"><g clip-path="url(#b2609ff691)"><path fill="#f8f9f0" d="M 24.488281 26.339844 L 351.667969 26.339844 L 351.667969 337.5 L 24.488281 337.5 Z M 24.488281 26.339844 " fill-opacity="1" fill-rule="nonzero"/></g></g><g clip-path="url(#0b0ab3b5a0)"><g clip-path="url(#cf6fe30554)"><path fill="#f8f9f0" d="M 24.488281 26.339844 L 351.667969 26.339844 L 351.667969 337.5 L 24.488281 337.5 Z M 24.488281 26.339844 " fill-opacity="1" fill-rule="nonzero"/></g></g><g clip-path="url(#046b57b143)"><g clip-path="url(#3210aa3f93)"><path fill="#f8f9f0" d="M 24.488281 26.339844 L 351.667969 26.339844 L 351.667969 337.5 L 24.488281 337.5 Z M 24.488281 26.339844 " fill-opacity="1" fill-rule="nonzero"/></g></g><g clip-path="url(#0ccb1734d6)"><g clip-path="url(#b970ff1b0d)"><path fill="#f8f9f0" d="M 24.488281 26.339844 L 351.667969 26.339844 L 351.667969 337.5 L 24.488281 337.5 Z M 24.488281 26.339844 " fill-opacity="1" fill-rule="nonzero"/></g></g><g clip-path="url(#8e20e4a5be)"><g clip-path="url(#5384139dca)"><path fill="#f8f9f0" d="M 24.488281 26.339844 L 351.667969 26.339844 L 351.667969 337.5 L 24.488281 337.5 Z M 24.488281 26.339844 " fill-opacity="1" fill-rule="nonzero"/></g></g><g clip-path="url(#50733629a0)"><g clip-path="url(#ddd732254c)"><path fill="#ed5b2d" d="M 24.488281 26.339844 L 351.667969 26.339844 L 351.667969 337.5 L 24.488281 337.5 Z M 24.488281 26.339844 " fill-opacity="1" fill-rule="nonzero"/></g></g><g clip-path="url(#ad2a7523fc)"><g clip-path="url(#eaa08d0128)"><path fill="#ed5b2d" d="M 24.488281 26.339844 L 351.667969 26.339844 L 351.667969 337.5 L 24.488281 337.5 Z M 24.488281 26.339844 " fill-opacity="1" fill-rule="nonzero"/></g></g><g clip-path="url(#6f56fc5b6a)"><g clip-path="url(#0ee255543e)"><path fill="#ed5b2d" d="M 24.488281 26.339844 L 351.667969 26.339844 L 351.667969 337.5 L 24.488281 337.5 Z M 24.488281 26.339844 " fill-opacity="1" fill-rule="nonzero"/></g></g></svg>