<svg xmlns="http://www.w3.org/2000/svg" xmlns:xlink="http://www.w3.org/1999/xlink" width="100" zoomAndPan="magnify" viewBox="0 0 75 74.999997" height="100" preserveAspectRatio="xMidYMid meet" version="1.0"><defs><clipPath id="75dc4610e8"><path d="M 22.5 22.5 L 52.5 22.5 L 52.5 52.5 L 22.5 52.5 Z M 22.5 22.5 " clip-rule="nonzero"/></clipPath></defs><g clip-path="url(#75dc4610e8)"><path fill="#46cc6b" d="M 52.5 37.5 C 52.5 45.785156 45.785156 52.5 37.5 52.5 C 34.566406 52.5 31.828125 51.65625 29.515625 50.199219 L 22.5 51.582031 L 25.339844 46.285156 C 23.554688 43.816406 22.5 40.78125 22.5 37.5 C 22.5 29.214844 29.214844 22.5 37.5 22.5 C 45.785156 22.5 52.5 29.214844 52.5 37.5 Z M 52.5 37.5 " fill-opacity="1" fill-rule="nonzero"/></g><path fill="#ffffff" d="M 49.710938 37.5 C 49.710938 38.300781 49.632812 39.097656 49.476562 39.882812 C 49.320312 40.667969 49.089844 41.433594 48.78125 42.175781 C 48.476562 42.914062 48.101562 43.617188 47.65625 44.285156 C 47.210938 44.953125 46.703125 45.570312 46.136719 46.136719 C 45.570312 46.703125 44.953125 47.210938 44.285156 47.65625 C 43.617188 48.101562 42.914062 48.476562 42.175781 48.78125 C 41.433594 49.089844 40.667969 49.320312 39.882812 49.476562 C 39.097656 49.632812 38.300781 49.710938 37.5 49.710938 C 36.699219 49.710938 35.90625 49.632812 35.117188 49.476562 C 34.332031 49.320312 33.566406 49.089844 32.828125 48.78125 C 32.085938 48.476562 31.382812 48.101562 30.714844 47.65625 C 30.050781 47.210938 29.433594 46.703125 28.867188 46.136719 C 28.296875 45.570312 27.792969 44.953125 27.347656 44.285156 C 26.902344 43.617188 26.527344 42.914062 26.21875 42.175781 C 25.910156 41.433594 25.679688 40.667969 25.523438 39.882812 C 25.367188 39.097656 25.289062 38.300781 25.289062 37.5 C 25.289062 36.699219 25.367188 35.90625 25.523438 35.117188 C 25.679688 34.332031 25.910156 33.566406 26.21875 32.828125 C 26.527344 32.085938 26.902344 31.382812 27.347656 30.714844 C 27.792969 30.050781 28.296875 29.433594 28.867188 28.867188 C 29.433594 28.296875 30.050781 27.792969 30.714844 27.347656 C 31.382812 26.902344 32.085938 26.527344 32.828125 26.21875 C 33.566406 25.910156 34.332031 25.679688 35.117188 25.523438 C 35.90625 25.367188 36.699219 25.289062 37.5 25.289062 C 38.300781 25.289062 39.097656 25.367188 39.882812 25.523438 C 40.667969 25.679688 41.433594 25.910156 42.175781 26.21875 C 42.914062 26.527344 43.617188 26.902344 44.285156 27.347656 C 44.953125 27.792969 45.570312 28.296875 46.136719 28.867188 C 46.703125 29.433594 47.210938 30.050781 47.65625 30.714844 C 48.101562 31.382812 48.476562 32.085938 48.78125 32.828125 C 49.089844 33.566406 49.320312 34.332031 49.476562 35.117188 C 49.632812 35.90625 49.710938 36.699219 49.710938 37.5 Z M 49.710938 37.5 " fill-opacity="1" fill-rule="nonzero"/><path fill="#46cc6b" d="M 47.355469 37.5 C 47.355469 38.148438 47.292969 38.789062 47.167969 39.421875 C 47.042969 40.058594 46.855469 40.675781 46.605469 41.273438 C 46.359375 41.871094 46.054688 42.4375 45.695312 42.976562 C 45.335938 43.515625 44.925781 44.011719 44.46875 44.46875 C 44.011719 44.925781 43.515625 45.335938 42.976562 45.695312 C 42.4375 46.054688 41.871094 46.359375 41.273438 46.605469 C 40.675781 46.855469 40.058594 47.042969 39.421875 47.167969 C 38.789062 47.292969 38.148438 47.355469 37.5 47.355469 C 36.855469 47.355469 36.210938 47.292969 35.578125 47.167969 C 34.941406 47.042969 34.328125 46.855469 33.730469 46.605469 C 33.132812 46.359375 32.5625 46.054688 32.023438 45.695312 C 31.488281 45.335938 30.988281 44.925781 30.53125 44.46875 C 30.074219 44.011719 29.664062 43.515625 29.304688 42.976562 C 28.945312 42.4375 28.644531 41.871094 28.394531 41.273438 C 28.148438 40.675781 27.960938 40.058594 27.835938 39.421875 C 27.707031 38.789062 27.644531 38.148438 27.644531 37.5 C 27.644531 36.855469 27.707031 36.210938 27.835938 35.578125 C 27.960938 34.941406 28.148438 34.328125 28.394531 33.730469 C 28.644531 33.132812 28.945312 32.5625 29.304688 32.023438 C 29.664062 31.488281 30.074219 30.988281 30.53125 30.53125 C 30.988281 30.074219 31.488281 29.664062 32.023438 29.304688 C 32.5625 28.945312 33.132812 28.644531 33.730469 28.394531 C 34.328125 28.148438 34.941406 27.960938 35.578125 27.835938 C 36.210938 27.707031 36.855469 27.644531 37.5 27.644531 C 38.148438 27.644531 38.789062 27.707031 39.421875 27.835938 C 40.058594 27.960938 40.675781 28.148438 41.273438 28.394531 C 41.871094 28.644531 42.4375 28.945312 42.976562 29.304688 C 43.515625 29.664062 44.011719 30.074219 44.46875 30.53125 C 44.925781 30.988281 45.335938 31.488281 45.695312 32.023438 C 46.054688 32.5625 46.359375 33.132812 46.605469 33.730469 C 46.855469 34.328125 47.042969 34.941406 47.167969 35.578125 C 47.292969 36.210938 47.355469 36.855469 47.355469 37.5 Z M 47.355469 37.5 " fill-opacity="1" fill-rule="nonzero"/><path fill="#ffffff" d="M 35.957031 35.132812 L 35.421875 33.542969 C 35.183594 32.828125 34.410156 32.445312 33.699219 32.683594 C 33.652344 32.699219 33.601562 32.71875 33.554688 32.738281 L 32.695312 33.140625 C 32.121094 33.410156 31.804688 34.042969 31.941406 34.664062 C 32.480469 37.152344 34.457031 43.109375 41.136719 43.855469 C 41.675781 43.914062 42.203125 43.644531 42.472656 43.171875 L 42.914062 42.386719 C 43.285156 41.734375 43.054688 40.902344 42.402344 40.53125 L 42.390625 40.527344 L 41.199219 39.867188 C 40.671875 39.570312 40.011719 39.664062 39.582031 40.089844 C 39.15625 40.511719 38.5 40.605469 37.972656 40.316406 C 37.246094 39.917969 36.253906 39.242188 35.558594 38.238281 C 35.238281 37.78125 35.234375 37.171875 35.542969 36.703125 L 35.796875 36.320312 C 36.03125 35.96875 36.089844 35.53125 35.957031 35.132812 Z M 35.957031 35.132812 " fill-opacity="1" fill-rule="nonzero"/></svg>