<svg xmlns="http://www.w3.org/2000/svg" xmlns:xlink="http://www.w3.org/1999/xlink" width="100" zoomAndPan="magnify" viewBox="0 0 75 74.999997" height="100" preserveAspectRatio="xMidYMid meet" version="1.0"><defs><clipPath id="6f650fa364"><path d="M 22.5 26.511719 L 52.5 26.511719 L 52.5 48.261719 L 22.5 48.261719 Z M 22.5 26.511719 " clip-rule="nonzero"/></clipPath></defs><g clip-path="url(#6f650fa364)"><path fill="#ffffff" d="M 49.484375 26.511719 L 25.515625 26.511719 C 25.117188 26.511719 24.734375 26.589844 24.367188 26.742188 C 24 26.894531 23.675781 27.109375 23.394531 27.390625 C 23.117188 27.671875 22.898438 27.996094 22.746094 28.363281 C 22.59375 28.730469 22.519531 29.113281 22.519531 29.507812 L 22.519531 45.488281 C 22.519531 45.886719 22.59375 46.269531 22.746094 46.636719 C 22.898438 47.003906 23.117188 47.328125 23.394531 47.609375 C 23.675781 47.886719 24 48.105469 24.367188 48.257812 C 24.734375 48.410156 25.117188 48.484375 25.515625 48.484375 L 49.484375 48.484375 C 49.882812 48.484375 50.265625 48.410156 50.632812 48.257812 C 51 48.105469 51.324219 47.886719 51.605469 47.609375 C 51.882812 47.328125 52.101562 47.003906 52.253906 46.636719 C 52.40625 46.269531 52.480469 45.886719 52.480469 45.488281 L 52.480469 29.507812 C 52.480469 29.113281 52.40625 28.730469 52.253906 28.363281 C 52.101562 27.996094 51.882812 27.671875 51.605469 27.390625 C 51.324219 27.109375 51 26.894531 50.632812 26.742188 C 50.265625 26.589844 49.882812 26.511719 49.484375 26.511719 Z M 24.515625 29.683594 L 32.804688 36.785156 L 24.515625 45.074219 Z M 38.148438 37.625 C 37.960938 37.785156 37.746094 37.867188 37.5 37.867188 C 37.253906 37.867188 37.039062 37.785156 36.851562 37.625 L 26.214844 28.511719 L 48.785156 28.511719 Z M 34.324219 38.089844 L 35.550781 39.140625 C 35.824219 39.363281 36.128906 39.535156 36.464844 39.65625 C 36.796875 39.777344 37.144531 39.835938 37.5 39.835938 C 37.855469 39.835938 38.199219 39.777344 38.535156 39.65625 C 38.871094 39.535156 39.175781 39.363281 39.449219 39.140625 L 40.675781 38.089844 L 49.070312 46.488281 L 25.929688 46.488281 Z M 42.195312 36.792969 L 50.484375 29.683594 L 50.484375 45.074219 Z M 42.195312 36.792969 " fill-opacity="1" fill-rule="nonzero"/></g></svg>