<svg xmlns="http://www.w3.org/2000/svg" xmlns:xlink="http://www.w3.org/1999/xlink" width="500" zoomAndPan="magnify" viewBox="0 0 375 374.999991" height="500" preserveAspectRatio="xMidYMid meet" version="1.0"><defs><g/><clipPath id="ed4e6434ac"><path d="M 135.472656 167.703125 L 158.691406 167.703125 L 158.691406 191.125 L 135.472656 191.125 Z M 135.472656 167.703125 " clip-rule="nonzero"/></clipPath><clipPath id="8c5c11c3a1"><path d="M 146.976562 173.308594 C 146.980469 173.308594 146.988281 173.308594 146.992188 173.308594 C 150.515625 173.316406 153.179688 176.300781 153.089844 179.578125 C 153 182.890625 150.308594 185.53125 146.914062 185.53125 C 146.898438 185.53125 146.882812 185.53125 146.863281 185.53125 C 143.503906 185.507812 140.851562 182.769531 140.878906 179.359375 C 140.902344 175.988281 143.613281 173.304688 146.976562 173.304688 Z M 146.179688 167.800781 C 145.578125 167.820312 145.320312 168.09375 145.296875 168.6875 L 145.285156 169.699219 C 145.253906 170.351562 144.199219 171.011719 143.433594 171.011719 C 143.246094 171.011719 143.078125 170.972656 142.941406 170.882812 C 142.816406 170.796875 142.71875 170.660156 142.621094 170.535156 L 142.019531 169.726562 C 141.820312 169.472656 141.601562 169.335938 141.355469 169.335938 C 141.191406 169.335938 141.015625 169.398438 140.828125 169.53125 L 139.484375 170.511719 C 139.035156 170.859375 138.976562 171.277344 139.296875 171.757812 C 139.484375 172.039062 139.753906 172.277344 139.875 172.582031 C 139.996094 172.886719 140.128906 173.351562 139.988281 173.558594 C 139.636719 174.070312 139.4375 174.804688 138.660156 174.894531 C 138.644531 174.898438 138.628906 174.898438 138.613281 174.898438 C 138.480469 174.898438 138.335938 174.835938 138.199219 174.792969 L 137.242188 174.480469 C 137.132812 174.453125 137.03125 174.441406 136.9375 174.441406 C 136.59375 174.441406 136.328125 174.613281 136.191406 175.003906 L 135.667969 176.644531 C 135.527344 177.15625 135.691406 177.542969 136.226562 177.71875 L 137.296875 178.078125 C 137.699219 178.214844 137.890625 178.496094 137.917969 178.925781 C 138.007812 180.480469 137.964844 180.558594 136.421875 181.066406 L 136.273438 181.117188 C 135.707031 181.320312 135.515625 181.632812 135.667969 182.214844 C 135.808594 182.769531 135.988281 183.320312 136.183594 183.859375 C 136.320312 184.234375 136.585938 184.421875 136.933594 184.421875 C 137.042969 184.421875 137.160156 184.40625 137.285156 184.367188 C 137.644531 184.257812 138 184.070312 138.363281 184.054688 C 138.386719 184.054688 138.410156 184.054688 138.433594 184.054688 C 138.742188 184.054688 139.148438 184.136719 139.296875 184.335938 C 140.203125 185.550781 140.523438 185.492188 139.382812 186.976562 L 139.285156 187.105469 C 138.976562 187.582031 139.027344 188 139.476562 188.355469 L 140.824219 189.335938 C 141.007812 189.457031 141.1875 189.519531 141.359375 189.519531 C 141.601562 189.519531 141.824219 189.394531 142.023438 189.132812 C 142.261719 188.816406 142.457031 188.453125 142.75 188.195312 C 142.929688 188.039062 143.234375 187.875 143.457031 187.875 C 143.496094 187.875 143.53125 187.882812 143.566406 187.890625 C 145.019531 188.378906 145.347656 188.027344 145.277344 190.007812 L 145.28125 190.128906 C 145.308594 190.789062 145.5625 191.046875 146.242188 191.066406 L 147.550781 191.070312 C 148.445312 191.0625 148.664062 190.835938 148.671875 189.929688 C 148.6875 188.382812 148.6875 188.382812 150.183594 187.917969 L 150.21875 187.910156 C 150.339844 187.867188 150.453125 187.84375 150.5625 187.84375 C 150.839844 187.84375 151.070312 187.988281 151.265625 188.242188 L 151.929688 189.15625 C 152.121094 189.398438 152.347656 189.519531 152.589844 189.519531 C 152.75 189.519531 152.917969 189.464844 153.089844 189.355469 C 153.585938 189.03125 154.066406 188.675781 154.53125 188.304688 C 154.933594 187.980469 154.972656 187.574219 154.679688 187.144531 L 154.054688 186.277344 C 153.757812 185.871094 153.769531 185.496094 154.066406 185.078125 C 154.617188 184.3125 154.824219 184.015625 155.265625 184.015625 C 155.542969 184.015625 155.910156 184.132812 156.511719 184.328125 L 156.664062 184.371094 C 156.796875 184.417969 156.914062 184.4375 157.023438 184.4375 C 157.363281 184.4375 157.597656 184.222656 157.753906 183.851562 L 158.003906 183.121094 C 158.492188 181.65625 158.667969 181.359375 156.878906 180.84375 C 156.589844 180.761719 156.242188 180.53125 156.113281 180.273438 C 155.617188 179.257812 156.089844 178.253906 157.160156 177.910156 C 158.429688 177.5 158.511719 177.34375 158.082031 176.027344 L 158.050781 175.910156 C 157.714844 174.839844 157.582031 174.449219 157.085938 174.449219 C 156.804688 174.449219 156.410156 174.574219 155.796875 174.769531 C 155.640625 174.816406 155.457031 174.855469 155.285156 174.855469 C 155.160156 174.855469 155.042969 174.835938 154.945312 174.792969 C 153.964844 174.347656 153.671875 173.101562 154.289062 172.242188 L 154.953125 171.234375 C 154.800781 170.984375 154.726562 170.738281 154.5625 170.601562 C 154.070312 170.203125 153.554688 169.832031 153.027344 169.476562 C 152.878906 169.371094 152.730469 169.324219 152.59375 169.324219 C 152.363281 169.324219 152.152344 169.449219 151.976562 169.664062 L 151.304688 170.574219 C 151.097656 170.871094 150.847656 171.007812 150.546875 171.007812 C 150.425781 171.007812 150.300781 170.984375 150.164062 170.945312 C 148.679688 170.492188 148.679688 170.496094 148.664062 168.859375 L 148.664062 168.703125 C 148.636719 168.117188 148.367188 167.824219 147.785156 167.800781 Z M 146.179688 167.800781 " clip-rule="nonzero"/></clipPath><clipPath id="2ac0e32c1d"><path d="M 112.015625 175.195312 L 149.167969 175.195312 L 149.167969 199.804688 L 112.015625 199.804688 Z M 112.015625 175.195312 " clip-rule="nonzero"/></clipPath><clipPath id="ac89a29362"><path d="M 147.007812 192.375 C 147.695312 192.269531 148.3125 192.171875 148.953125 192.074219 C 148.953125 193.65625 149.097656 195.308594 148.917969 196.921875 C 148.722656 198.648438 147.289062 199.6875 145.503906 199.691406 L 125.3125 199.691406 C 122.078125 199.691406 118.839844 199.65625 115.605469 199.707031 C 113.671875 199.738281 112.03125 198.167969 112.050781 196.148438 C 112.117188 190.386719 112.117188 184.628906 112.050781 178.871094 C 112.03125 176.925781 113.519531 175.277344 115.640625 175.289062 C 121.855469 175.324219 128.070312 175.300781 134.285156 175.300781 C 134.421875 175.300781 134.558594 175.300781 134.742188 175.300781 C 134.589844 175.96875 134.445312 176.59375 134.289062 177.285156 L 133.664062 177.285156 C 127.769531 177.285156 121.871094 177.285156 115.976562 177.285156 C 114.660156 177.285156 114.078125 177.855469 114.078125 179.148438 L 114.078125 195.832031 C 114.078125 197.167969 114.613281 197.699219 115.960938 197.699219 L 145.144531 197.699219 C 146.402344 197.699219 147.003906 197.101562 147.007812 195.851562 L 147.007812 192.378906 " clip-rule="nonzero"/></clipPath><clipPath id="116f266972"><path d="M 110.230469 202 L 150.832031 202 L 150.832031 204.796875 L 110.230469 204.796875 Z M 110.230469 202 " clip-rule="nonzero"/></clipPath><clipPath id="ba6ab4ec3e"><path d="M 150.695312 202.015625 C 150.722656 203.4375 149.640625 204.613281 148.179688 204.644531 C 143.917969 204.742188 139.652344 204.679688 135.398438 204.679688 C 135.023438 203.296875 134.757812 203.09375 133.324219 203.089844 L 127.492188 203.085938 C 126.316406 203.089844 125.882812 203.480469 125.714844 204.660156 L 125.261719 204.703125 C 121.332031 204.703125 117.402344 204.714844 113.472656 204.683594 C 112.917969 204.679688 112.328125 204.539062 111.820312 204.316406 C 110.867188 203.90625 110.398438 203.105469 110.316406 202.015625 Z M 150.695312 202.015625 " clip-rule="nonzero"/></clipPath><clipPath id="e97427ff9f"><path d="M 106.777344 163.066406 L 138.808594 163.066406 L 138.808594 186.726562 L 106.777344 186.726562 Z M 106.777344 163.066406 " clip-rule="nonzero"/></clipPath><clipPath id="4d49cd4eae"><path d="M 118.394531 163.070312 C 117.882812 163.070312 117.371094 163.089844 116.851562 163.132812 C 114.335938 163.339844 112.046875 164.152344 110.183594 165.921875 C 107.550781 168.417969 106.816406 171.625 106.90625 175.089844 C 106.972656 177.789062 107.605469 180.386719 108.554688 182.90625 C 109.023438 184.15625 109.582031 185.375 110.097656 186.609375 L 110.285156 186.550781 C 110.285156 185.601562 110.3125 184.648438 110.273438 183.695312 C 110.253906 183.253906 110.164062 182.792969 110 182.386719 C 108.617188 178.953125 107.609375 175.46875 108.003906 171.695312 C 108.429688 167.640625 111.320312 164.675781 115.371094 164.179688 C 115.996094 164.101562 116.617188 164.066406 117.230469 164.066406 C 119.273438 164.066406 121.261719 164.460938 123.222656 165.074219 C 127.761719 166.488281 131.800781 168.859375 135.582031 171.695312 C 136.429688 172.332031 137.253906 173 138.117188 173.679688 C 138.355469 173.355469 138.550781 173.085938 138.730469 172.835938 L 137.761719 171.238281 C 137.601562 170.980469 137.453125 170.6875 137.21875 170.511719 C 134.863281 168.75 132.375 167.199219 129.707031 165.957031 C 126.117188 164.285156 122.417969 163.078125 118.464844 163.070312 Z M 118.394531 163.070312 " clip-rule="nonzero"/></clipPath><clipPath id="459cbf6652"><path d="M 128.210938 190.53125 L 155.953125 190.53125 L 155.953125 212 L 128.210938 212 Z M 128.210938 190.53125 " clip-rule="nonzero"/></clipPath><clipPath id="0acf51b73d"><path d="M 151.640625 190.632812 C 151.640625 190.632812 151.640625 190.632812 151.640625 190.636719 C 151.640625 190.632812 151.640625 190.632812 151.640625 190.632812 Z M 151.640625 190.636719 C 151.636719 190.640625 151.628906 190.660156 151.597656 190.710938 C 151.625 190.714844 151.648438 190.722656 151.675781 190.726562 L 151.640625 190.644531 C 151.640625 190.640625 151.640625 190.636719 151.640625 190.636719 Z M 151.675781 190.726562 L 152.503906 192.664062 C 153.859375 196.003906 154.777344 199.414062 154.382812 203.082031 C 154.015625 206.507812 151.917969 209.15625 148.636719 210.175781 C 147.507812 210.527344 146.363281 210.667969 145.21875 210.667969 C 144.179688 210.667969 143.140625 210.550781 142.101562 210.367188 C 138.785156 209.777344 135.679688 208.5625 132.796875 206.867188 C 132.007812 206.402344 131.214844 206.308594 130.417969 206.308594 C 129.863281 206.308594 129.300781 206.355469 128.738281 206.355469 C 128.578125 206.355469 128.414062 206.351562 128.253906 206.339844 C 128.453125 206.558594 128.667969 206.71875 128.90625 206.84375 C 130.496094 207.695312 132.050781 208.621094 133.691406 209.363281 C 137.097656 210.902344 140.613281 211.933594 144.351562 211.933594 C 144.902344 211.933594 145.457031 211.910156 146.019531 211.863281 C 151.324219 211.425781 155.246094 207.503906 155.695312 202.199219 C 155.925781 199.460938 155.542969 196.816406 154.8125 194.207031 C 154.503906 193.105469 154.085938 192.042969 153.78125 191.148438 C 152.976562 190.988281 152.34375 190.859375 151.675781 190.726562 Z M 151.675781 190.726562 " clip-rule="nonzero"/></clipPath><clipPath id="f3ad307c49"><path d="M 125.589844 184.585938 L 135.472656 184.585938 L 135.472656 194.335938 L 125.589844 194.335938 Z M 125.589844 184.585938 " clip-rule="nonzero"/></clipPath><clipPath id="05af7d9c54"><path d="M 133.0625 189.472656 C 133.066406 188.050781 131.96875 186.933594 130.558594 186.921875 C 129.125 186.910156 127.972656 188.050781 127.972656 189.472656 C 127.976562 190.859375 129.117188 191.988281 130.53125 192.003906 C 131.929688 192.015625 133.058594 190.886719 133.0625 189.472656 M 126.480469 187.460938 C 126.730469 187.480469 127.003906 187.574219 127.226562 187.507812 C 127.625 187.382812 127.738281 186.828125 127.453125 186.441406 C 127.125 185.996094 127.363281 185.78125 127.707031 185.535156 C 128.035156 185.292969 128.332031 185.148438 128.589844 185.59375 C 128.777344 185.914062 129.015625 186.007812 129.386719 185.890625 C 129.765625 185.769531 129.871094 185.527344 129.839844 185.171875 C 129.785156 184.617188 130.167969 184.636719 130.542969 184.632812 C 130.929688 184.628906 131.289062 184.648438 131.242188 185.183594 C 131.214844 185.539062 131.304688 185.777344 131.695312 185.898438 C 132.078125 186.011719 132.300781 185.878906 132.484375 185.578125 C 132.769531 185.117188 133.0625 185.335938 133.375 185.550781 C 133.695312 185.777344 133.953125 186.007812 133.613281 186.40625 C 133.378906 186.683594 133.332031 186.9375 133.570312 187.257812 C 133.808594 187.578125 134.050781 187.609375 134.390625 187.46875 C 134.859375 187.277344 135.015625 187.585938 135.136719 187.964844 C 135.253906 188.332031 135.34375 188.675781 134.835938 188.804688 C 134.492188 188.894531 134.292969 189.046875 134.296875 189.460938 C 134.304688 189.859375 134.480469 190.03125 134.832031 190.121094 C 135.390625 190.261719 135.230469 190.625 135.121094 191.007812 C 135 191.429688 134.792969 191.644531 134.351562 191.453125 C 134.03125 191.308594 133.808594 191.347656 133.589844 191.648438 C 133.363281 191.957031 133.359375 192.21875 133.609375 192.5 C 133.941406 192.882812 133.75 193.125 133.402344 193.359375 C 133.066406 193.589844 132.753906 193.820312 132.464844 193.332031 C 132.269531 193.003906 132.015625 192.929688 131.660156 193.042969 C 131.308594 193.15625 131.222656 193.398438 131.25 193.730469 C 131.296875 194.292969 130.917969 194.308594 130.511719 194.308594 C 130.113281 194.308594 129.773438 194.269531 129.832031 193.742188 C 129.867188 193.40625 129.769531 193.164062 129.417969 193.054688 C 129.078125 192.953125 128.804688 192.96875 128.609375 193.320312 C 128.34375 193.800781 128.027344 193.636719 127.679688 193.382812 C 127.328125 193.128906 127.101562 192.875 127.464844 192.476562 C 127.699219 192.214844 127.726562 191.988281 127.503906 191.6875 C 127.277344 191.386719 127.058594 191.285156 126.699219 191.453125 C 126.308594 191.636719 126.074219 191.480469 125.96875 191.054688 C 125.875 190.675781 125.605469 190.285156 126.230469 190.121094 C 126.570312 190.035156 126.765625 189.867188 126.765625 189.460938 C 126.765625 189.054688 126.574219 188.90625 126.230469 188.804688 C 125.957031 188.722656 125.6875 188.582031 125.867188 188.207031 C 126.015625 187.90625 125.914062 187.394531 126.480469 187.457031 " clip-rule="nonzero"/></clipPath><clipPath id="a7399d67ee"><path d="M 117.496094 180.070312 L 124 180.070312 L 124 186.609375 L 117.496094 186.609375 Z M 117.496094 180.070312 " clip-rule="nonzero"/></clipPath><clipPath id="e74a0975a4"><path d="M 119.089844 183.328125 C 119.082031 184.273438 119.828125 185.039062 120.761719 185.046875 C 121.699219 185.050781 122.457031 184.300781 122.464844 183.359375 C 122.46875 182.417969 121.726562 181.652344 120.792969 181.640625 C 119.863281 181.628906 119.097656 182.390625 119.089844 183.328125 M 118.757812 185.921875 L 118.238281 185.332031 C 118.316406 185.214844 118.40625 185.128906 118.441406 185.023438 C 118.492188 184.855469 118.585938 184.640625 118.523438 184.507812 C 118.464844 184.378906 118.222656 184.234375 118.082031 184.253906 C 117.699219 184.308594 117.59375 184.070312 117.613281 183.816406 C 117.625 183.644531 117.789062 183.421875 117.945312 183.335938 C 118.363281 183.113281 118.40625 182.8125 118.074219 182.476562 C 117.953125 182.351562 117.875 182.089844 117.910156 181.917969 C 117.964844 181.628906 118.160156 181.53125 118.492188 181.640625 C 118.988281 181.808594 119.179688 181.554688 119.089844 181.019531 C 119.0625 180.859375 119.199219 180.578125 119.339844 180.511719 C 119.480469 180.445312 119.78125 180.507812 119.898438 180.628906 C 120.269531 181.007812 120.628906 180.996094 120.753906 180.496094 C 120.851562 180.117188 121.089844 180.105469 121.320312 180.199219 C 121.480469 180.265625 121.648438 180.492188 121.671875 180.667969 C 121.746094 181.148438 122.035156 181.328125 122.421875 181.03125 C 122.703125 180.816406 122.914062 180.839844 123.058594 181.101562 C 123.140625 181.257812 123.164062 181.527344 123.085938 181.679688 C 122.855469 182.113281 122.96875 182.429688 123.453125 182.425781 C 123.785156 182.425781 123.910156 182.546875 123.964844 182.851562 C 124.019531 183.175781 123.902344 183.300781 123.585938 183.386719 C 123.179688 183.5 123.117188 183.945312 123.476562 184.183594 C 123.761719 184.367188 123.804688 184.523438 123.648438 184.808594 C 123.503906 185.074219 123.371094 185.175781 123.042969 185.046875 C 122.628906 184.875 122.316406 185.160156 122.46875 185.578125 C 122.59375 185.925781 122.507812 186.082031 122.214844 186.238281 C 121.910156 186.402344 121.773438 186.292969 121.601562 186.03125 C 121.367188 185.675781 120.996094 185.777344 120.789062 186.167969 C 120.707031 186.328125 120.5 186.503906 120.339844 186.515625 C 120.054688 186.535156 119.796875 186.433594 119.867188 186.019531 C 119.886719 185.894531 119.761719 185.65625 119.644531 185.613281 C 119.5 185.558594 119.296875 185.628906 119.125 185.675781 C 119.019531 185.707031 118.933594 185.800781 118.757812 185.921875 " clip-rule="nonzero"/></clipPath><clipPath id="b80a7cda13"><path d="M 143 175.433594 L 150.953125 175.433594 L 150.953125 183.398438 L 143 183.398438 Z M 143 175.433594 " clip-rule="nonzero"/></clipPath><clipPath id="f784a50f91"><path d="M 143.0625 179.382812 C 143.085938 177.203125 144.851562 175.488281 147.046875 175.515625 C 149.160156 175.542969 150.941406 177.371094 150.902344 179.476562 C 150.859375 181.609375 149.070312 183.367188 146.957031 183.351562 C 144.785156 183.332031 143.039062 181.550781 143.0625 179.382812 " clip-rule="nonzero"/></clipPath><clipPath id="7173c430b1"><path d="M 185.945312 170.496094 L 202.445312 170.496094 L 202.445312 194.496094 L 185.945312 194.496094 Z M 185.945312 170.496094 " clip-rule="nonzero"/></clipPath><clipPath id="39309e6cb7"><path d="M 164.191406 170.496094 L 180.679688 170.496094 L 180.679688 194.496094 L 164.191406 194.496094 Z M 164.191406 170.496094 " clip-rule="nonzero"/></clipPath></defs><g clip-path="url(#ed4e6434ac)"><g clip-path="url(#8c5c11c3a1)"><path fill="#f8f9f0" d="M 106.300781 162.472656 L 158.929688 162.472656 L 158.929688 212.527344 L 106.300781 212.527344 Z M 106.300781 162.472656 " fill-opacity="1" fill-rule="nonzero"/></g></g><g clip-path="url(#2ac0e32c1d)"><g clip-path="url(#ac89a29362)"><path fill="#f8f9f0" d="M 106.300781 162.472656 L 158.929688 162.472656 L 158.929688 212.527344 L 106.300781 212.527344 Z M 106.300781 162.472656 " fill-opacity="1" fill-rule="nonzero"/></g></g><g clip-path="url(#116f266972)"><g clip-path="url(#ba6ab4ec3e)"><path fill="#f8f9f0" d="M 106.300781 162.472656 L 158.929688 162.472656 L 158.929688 212.527344 L 106.300781 212.527344 Z M 106.300781 162.472656 " fill-opacity="1" fill-rule="nonzero"/></g></g><g clip-path="url(#e97427ff9f)"><g clip-path="url(#4d49cd4eae)"><path fill="#f8f9f0" d="M 106.300781 162.472656 L 158.929688 162.472656 L 158.929688 212.527344 L 106.300781 212.527344 Z M 106.300781 162.472656 " fill-opacity="1" fill-rule="nonzero"/></g></g><g clip-path="url(#459cbf6652)"><g clip-path="url(#0acf51b73d)"><path fill="#f8f9f0" d="M 106.300781 162.472656 L 158.929688 162.472656 L 158.929688 212.527344 L 106.300781 212.527344 Z M 106.300781 162.472656 " fill-opacity="1" fill-rule="nonzero"/></g></g><g clip-path="url(#f3ad307c49)"><g clip-path="url(#05af7d9c54)"><path fill="#ed5b2d" d="M 106.300781 162.472656 L 158.929688 162.472656 L 158.929688 212.527344 L 106.300781 212.527344 Z M 106.300781 162.472656 " fill-opacity="1" fill-rule="nonzero"/></g></g><g clip-path="url(#a7399d67ee)"><g clip-path="url(#e74a0975a4)"><path fill="#ed5b2d" d="M 106.300781 162.472656 L 158.929688 162.472656 L 158.929688 212.527344 L 106.300781 212.527344 Z M 106.300781 162.472656 " fill-opacity="1" fill-rule="nonzero"/></g></g><g clip-path="url(#b80a7cda13)"><g clip-path="url(#f784a50f91)"><path fill="#ed5b2d" d="M 106.300781 162.472656 L 158.929688 162.472656 L 158.929688 212.527344 L 106.300781 212.527344 Z M 106.300781 162.472656 " fill-opacity="1" fill-rule="nonzero"/></g></g><g clip-path="url(#7173c430b1)"><path fill="#f8f9f0" d="M 190.351562 170.496094 L 186.503906 170.496094 C 186.203125 170.496094 185.957031 170.742188 185.957031 171.046875 L 185.957031 194.136719 C 185.957031 194.4375 186.203125 194.683594 186.503906 194.683594 L 201.898438 194.683594 C 202.199219 194.683594 202.445312 194.4375 202.445312 194.136719 L 202.445312 190.835938 C 202.445312 190.535156 202.199219 190.285156 201.898438 190.285156 L 190.902344 190.285156 L 190.902344 171.046875 C 190.902344 170.742188 190.65625 170.496094 190.351562 170.496094 Z M 190.351562 170.496094 " fill-opacity="1" fill-rule="nonzero"/></g><g fill="#ffffff" fill-opacity="1"><g transform="translate(202.127876, 193.340018)"><g><path d="M 18.03125 -23.140625 L 18.03125 -19.390625 L 11.875 -19.390625 L 11.875 0 L 7.234375 0 L 7.234375 -19.390625 L 1.0625 -19.390625 L 1.0625 -23.140625 Z M 18.03125 -23.140625 "/></g></g></g><g fill="#ffffff" fill-opacity="1"><g transform="translate(220.595907, 193.340018)"><g><path d="M 19.359375 -9.578125 C 19.359375 -8.921875 19.316406 -8.328125 19.234375 -7.796875 L 5.796875 -7.796875 C 5.910156 -6.460938 6.375 -5.421875 7.1875 -4.671875 C 8.007812 -3.921875 9.019531 -3.546875 10.21875 -3.546875 C 11.9375 -3.546875 13.160156 -4.285156 13.890625 -5.765625 L 18.90625 -5.765625 C 18.375 -3.992188 17.351562 -2.539062 15.84375 -1.40625 C 14.34375 -0.269531 12.5 0.296875 10.3125 0.296875 C 8.539062 0.296875 6.953125 -0.09375 5.546875 -0.875 C 4.148438 -1.664062 3.054688 -2.773438 2.265625 -4.203125 C 1.484375 -5.640625 1.09375 -7.300781 1.09375 -9.1875 C 1.09375 -11.082031 1.476562 -12.75 2.25 -14.1875 C 3.03125 -15.625 4.113281 -16.726562 5.5 -17.5 C 6.894531 -18.28125 8.5 -18.671875 10.3125 -18.671875 C 12.0625 -18.671875 13.625 -18.289062 15 -17.53125 C 16.382812 -16.78125 17.457031 -15.710938 18.21875 -14.328125 C 18.976562 -12.953125 19.359375 -11.367188 19.359375 -9.578125 Z M 14.5625 -10.90625 C 14.53125 -12.101562 14.09375 -13.0625 13.25 -13.78125 C 12.414062 -14.5 11.390625 -14.859375 10.171875 -14.859375 C 9.023438 -14.859375 8.054688 -14.507812 7.265625 -13.8125 C 6.484375 -13.113281 6.003906 -12.144531 5.828125 -10.90625 Z M 14.5625 -10.90625 "/></g></g></g><g fill="#ffffff" fill-opacity="1"><g transform="translate(240.390203, 193.340018)"><g><path d="M 1.09375 -9.1875 C 1.09375 -11.082031 1.476562 -12.742188 2.25 -14.171875 C 3.03125 -15.597656 4.101562 -16.703125 5.46875 -17.484375 C 6.84375 -18.273438 8.410156 -18.671875 10.171875 -18.671875 C 12.453125 -18.671875 14.335938 -18.097656 15.828125 -16.953125 C 17.316406 -15.816406 18.316406 -14.222656 18.828125 -12.171875 L 13.828125 -12.171875 C 13.554688 -12.960938 13.101562 -13.582031 12.46875 -14.03125 C 11.84375 -14.488281 11.066406 -14.71875 10.140625 -14.71875 C 8.816406 -14.71875 7.765625 -14.238281 6.984375 -13.28125 C 6.210938 -12.320312 5.828125 -10.957031 5.828125 -9.1875 C 5.828125 -7.4375 6.210938 -6.082031 6.984375 -5.125 C 7.765625 -4.164062 8.816406 -3.6875 10.140625 -3.6875 C 12.023438 -3.6875 13.253906 -4.523438 13.828125 -6.203125 L 18.828125 -6.203125 C 18.316406 -4.210938 17.3125 -2.628906 15.8125 -1.453125 C 14.3125 -0.285156 12.429688 0.296875 10.171875 0.296875 C 8.410156 0.296875 6.84375 -0.09375 5.46875 -0.875 C 4.101562 -1.664062 3.03125 -2.769531 2.25 -4.1875 C 1.476562 -5.613281 1.09375 -7.28125 1.09375 -9.1875 Z M 1.09375 -9.1875 "/></g></g></g><g fill="#ffffff" fill-opacity="1"><g transform="translate(259.687146, 193.340018)"><g><path d="M 12.625 -18.640625 C 14.019531 -18.640625 15.257812 -18.332031 16.34375 -17.71875 C 17.425781 -17.113281 18.269531 -16.21875 18.875 -15.03125 C 19.488281 -13.851562 19.796875 -12.4375 19.796875 -10.78125 L 19.796875 0 L 15.15625 0 L 15.15625 -10.140625 C 15.15625 -11.597656 14.789062 -12.71875 14.0625 -13.5 C 13.332031 -14.289062 12.335938 -14.6875 11.078125 -14.6875 C 9.796875 -14.6875 8.78125 -14.289062 8.03125 -13.5 C 7.289062 -12.71875 6.921875 -11.597656 6.921875 -10.140625 L 6.921875 0 L 2.28125 0 L 2.28125 -24.53125 L 6.921875 -24.53125 L 6.921875 -16.078125 C 7.523438 -16.878906 8.320312 -17.503906 9.3125 -17.953125 C 10.3125 -18.410156 11.414062 -18.640625 12.625 -18.640625 Z M 12.625 -18.640625 "/></g></g></g><g clip-path="url(#39309e6cb7)"><path fill="#f8f9f0" d="M 176.285156 170.496094 L 180.132812 170.496094 C 180.4375 170.496094 180.683594 170.742188 180.683594 171.046875 L 180.683594 194.136719 C 180.683594 194.4375 180.4375 194.683594 180.132812 194.683594 L 164.742188 194.683594 C 164.4375 194.683594 164.191406 194.4375 164.191406 194.136719 L 164.191406 190.835938 C 164.191406 190.535156 164.4375 190.285156 164.742188 190.285156 L 175.734375 190.285156 L 175.734375 171.046875 C 175.734375 170.742188 175.980469 170.496094 176.285156 170.496094 Z M 176.285156 170.496094 " fill-opacity="1" fill-rule="nonzero"/></g><g fill="#ffffff" fill-opacity="1"><g transform="translate(164.59915, 210.662995)"><g><path d="M 1.59375 -7.40625 L 1.59375 0 L 0.84375 0 L 0.84375 -7.40625 Z M 1.59375 -7.40625 "/></g></g></g><g fill="#ffffff" fill-opacity="1"><g transform="translate(172.318898, 210.662995)"><g><path d="M 6.4375 0 L 5.6875 0 L 1.59375 -6.234375 L 1.59375 0 L 0.84375 0 L 0.84375 -7.40625 L 1.59375 -7.40625 L 5.6875 -1.1875 L 5.6875 -7.40625 L 6.4375 -7.40625 Z M 6.4375 0 "/></g></g></g><g fill="#ffffff" fill-opacity="1"><g transform="translate(184.877332, 210.662995)"><g><path d="M 4.859375 -7.40625 L 4.859375 -6.796875 L 1.59375 -6.796875 L 1.59375 -4.03125 L 4.34375 -4.03125 L 4.34375 -3.40625 L 1.59375 -3.40625 L 1.59375 0 L 0.84375 0 L 0.84375 -7.40625 Z M 4.859375 -7.40625 "/></g></g></g><g fill="#ffffff" fill-opacity="1"><g transform="translate(195.392286, 210.662995)"><g><path d="M 4.171875 0.078125 C 3.484375 0.078125 2.859375 -0.0820312 2.296875 -0.40625 C 1.742188 -0.726562 1.304688 -1.175781 0.984375 -1.75 C 0.671875 -2.320312 0.515625 -2.972656 0.515625 -3.703125 C 0.515625 -4.429688 0.671875 -5.082031 0.984375 -5.65625 C 1.304688 -6.238281 1.742188 -6.6875 2.296875 -7 C 2.859375 -7.320312 3.484375 -7.484375 4.171875 -7.484375 C 4.867188 -7.484375 5.492188 -7.320312 6.046875 -7 C 6.609375 -6.6875 7.046875 -6.238281 7.359375 -5.65625 C 7.679688 -5.082031 7.84375 -4.429688 7.84375 -3.703125 C 7.84375 -2.972656 7.679688 -2.320312 7.359375 -1.75 C 7.046875 -1.175781 6.609375 -0.726562 6.046875 -0.40625 C 5.492188 -0.0820312 4.867188 0.078125 4.171875 0.078125 Z M 4.171875 -0.578125 C 4.722656 -0.578125 5.21875 -0.703125 5.65625 -0.953125 C 6.09375 -1.203125 6.4375 -1.566406 6.6875 -2.046875 C 6.945312 -2.523438 7.078125 -3.078125 7.078125 -3.703125 C 7.078125 -4.335938 6.945312 -4.890625 6.6875 -5.359375 C 6.4375 -5.828125 6.09375 -6.1875 5.65625 -6.4375 C 5.21875 -6.695312 4.722656 -6.828125 4.171875 -6.828125 C 3.617188 -6.828125 3.125 -6.695312 2.6875 -6.4375 C 2.25 -6.1875 1.898438 -5.828125 1.640625 -5.359375 C 1.390625 -4.890625 1.265625 -4.335938 1.265625 -3.703125 C 1.265625 -3.078125 1.390625 -2.523438 1.640625 -2.046875 C 1.898438 -1.566406 2.25 -1.203125 2.6875 -0.953125 C 3.125 -0.703125 3.617188 -0.578125 4.171875 -0.578125 Z M 4.171875 -0.578125 "/></g></g></g><g fill="#ffffff" fill-opacity="1"><g transform="translate(209.03069, 210.662995)"><g><path d="M 4.78125 0 L 2.953125 -3.09375 L 1.59375 -3.09375 L 1.59375 0 L 0.84375 0 L 0.84375 -7.40625 L 3.078125 -7.40625 C 3.898438 -7.40625 4.523438 -7.207031 4.953125 -6.8125 C 5.378906 -6.414062 5.59375 -5.894531 5.59375 -5.25 C 5.59375 -4.71875 5.4375 -4.257812 5.125 -3.875 C 4.820312 -3.5 4.367188 -3.253906 3.765625 -3.140625 L 5.671875 0 Z M 1.59375 -3.703125 L 3.078125 -3.703125 C 3.660156 -3.703125 4.097656 -3.84375 4.390625 -4.125 C 4.679688 -4.40625 4.828125 -4.78125 4.828125 -5.25 C 4.828125 -5.738281 4.6875 -6.113281 4.40625 -6.375 C 4.125 -6.644531 3.679688 -6.78125 3.078125 -6.78125 L 1.59375 -6.78125 Z M 1.59375 -3.703125 "/></g></g></g><g fill="#ffffff" fill-opacity="1"><g transform="translate(220.54092, 210.662995)"><g><path d="M 8.078125 -7.3125 L 8.078125 0 L 7.34375 0 L 7.34375 -5.84375 L 4.734375 0 L 4.1875 0 L 1.59375 -5.8125 L 1.59375 0 L 0.84375 0 L 0.84375 -7.3125 L 1.625 -7.3125 L 4.453125 -0.96875 L 7.28125 -7.3125 Z M 8.078125 -7.3125 "/></g></g></g><g fill="#ffffff" fill-opacity="1"><g transform="translate(234.751066, 210.662995)"><g><path d="M 5.140625 -1.765625 L 1.765625 -1.765625 L 1.125 0 L 0.34375 0 L 3.046875 -7.3125 L 3.875 -7.3125 L 6.5625 0 L 5.78125 0 Z M 4.921875 -2.375 L 3.453125 -6.375 L 1.984375 -2.375 Z M 4.4375 -9.015625 L 2.265625 -7.765625 L 2.265625 -8.328125 L 4.4375 -9.6875 Z M 4.4375 -9.015625 "/></g></g></g><g fill="#ffffff" fill-opacity="1"><g transform="translate(246.949509, 210.662995)"><g><path d="M 5.1875 -7.40625 L 5.1875 -6.796875 L 3.125 -6.796875 L 3.125 0 L 2.390625 0 L 2.390625 -6.796875 L 0.3125 -6.796875 L 0.3125 -7.40625 Z M 5.1875 -7.40625 "/></g></g></g><g fill="#ffffff" fill-opacity="1"><g transform="translate(257.750347, 210.662995)"><g><path d="M 1.59375 -7.40625 L 1.59375 0 L 0.84375 0 L 0.84375 -7.40625 Z M 1.59375 -7.40625 "/></g></g></g><g fill="#ffffff" fill-opacity="1"><g transform="translate(265.470096, 210.662995)"><g><path d="M 0.515625 -3.703125 C 0.515625 -4.429688 0.671875 -5.082031 0.984375 -5.65625 C 1.304688 -6.238281 1.738281 -6.6875 2.28125 -7 C 2.832031 -7.320312 3.445312 -7.484375 4.125 -7.484375 C 4.957031 -7.484375 5.664062 -7.285156 6.25 -6.890625 C 6.84375 -6.503906 7.273438 -5.957031 7.546875 -5.25 L 6.671875 -5.25 C 6.460938 -5.75 6.140625 -6.140625 5.703125 -6.421875 C 5.265625 -6.703125 4.738281 -6.84375 4.125 -6.84375 C 3.582031 -6.84375 3.09375 -6.710938 2.65625 -6.453125 C 2.226562 -6.203125 1.890625 -5.835938 1.640625 -5.359375 C 1.390625 -4.890625 1.265625 -4.335938 1.265625 -3.703125 C 1.265625 -3.078125 1.390625 -2.523438 1.640625 -2.046875 C 1.890625 -1.578125 2.226562 -1.210938 2.65625 -0.953125 C 3.09375 -0.703125 3.582031 -0.578125 4.125 -0.578125 C 4.738281 -0.578125 5.265625 -0.71875 5.703125 -1 C 6.140625 -1.28125 6.460938 -1.664062 6.671875 -2.15625 L 7.546875 -2.15625 C 7.273438 -1.457031 6.84375 -0.910156 6.25 -0.515625 C 5.65625 -0.128906 4.945312 0.0625 4.125 0.0625 C 3.445312 0.0625 2.832031 -0.0976562 2.28125 -0.421875 C 1.738281 -0.742188 1.304688 -1.1875 0.984375 -1.75 C 0.671875 -2.320312 0.515625 -2.972656 0.515625 -3.703125 Z M 0.515625 -3.703125 "/></g></g></g><g fill="#ffffff" fill-opacity="1"><g transform="translate(278.928498, 210.662995)"><g><path d="M 5.140625 -1.765625 L 1.765625 -1.765625 L 1.125 0 L 0.34375 0 L 3.046875 -7.3125 L 3.875 -7.3125 L 6.5625 0 L 5.78125 0 Z M 4.921875 -2.375 L 3.453125 -6.375 L 1.984375 -2.375 Z M 4.921875 -2.375 "/></g></g></g><path stroke-linecap="butt" transform="matrix(0.75, 0, 0, 0.75, 165.227646, 197.78212)" fill="none" stroke-linejoin="miter" d="M -0.0014442 1.49884 L 159.998566 1.49884 " stroke="#ed5b2d" stroke-width="3" stroke-opacity="1" stroke-miterlimit="4"/></svg>